<svg width="2048" height="773" viewBox="0 0 2048 773" fill="none" xmlns="http://www.w3.org/2000/svg">
<g clip-path="url(#clip0_1_100)">
<path d="M496.864 213.796C496.993 213.903 497.147 213.987 497.252 214.117C500.259 217.863 498.737 270.053 498.706 278.426C520.691 252.03 551.588 222.727 586.662 221.183C658.013 218.042 697.246 285.072 700.877 348.45C705.5 406.23 692.451 458.91 656.121 504.66C619.417 550.89 547.981 575.67 498.611 533.58C499.273 563.22 498.779 594.49 498.768 624.25C498.589 650.22 496.062 679.77 520.177 696.73C529.697 703.42 536.915 704.72 547.688 708.18C538.512 709.84 488.949 709.78 476.333 709.43C446.994 708.62 406.025 710.99 377.631 708.75L377.175 707.04C378.347 706.03 378.142 705.93 379.576 705.64C395.915 701.92 406.52 690.36 410.836 674.61C417.071 651.86 415.668 629.09 415.94 605.79C416.099 592.26 415.983 578.59 415.98 565L415.391 426.86L415.269 351.63C415.259 315.843 422.697 273.99 379.799 261.795C415.871 253.904 464.76 231.58 496.864 213.796ZM539.934 265.409C493.329 270.411 498.657 308.438 498.686 343.154L498.773 411.34L498.742 469.58C498.705 481.96 498.245 494.171 499.468 506.48C502.943 541.49 541.645 553.94 569.995 538.98C612.699 507.911 618.507 449.7 618.037 400.9C617.637 359.34 601.505 272.921 549.019 266.104C546.003 265.729 542.971 265.497 539.934 265.409Z" fill="#0C0A0B"/>
<path d="M688.612 265.555C721.09 258.405 781.189 235.337 810.237 219.638L809.881 277.285C824.721 252.663 843.022 236.485 870.712 227.486C907.978 215.375 951.124 221.116 970.4 258.995C974.35 266.757 976.327 273.175 978.941 281.557C992.769 255.396 1016.41 235.791 1044.68 227.046C1065.23 220.619 1091.64 219.22 1111.06 229.983C1151.77 252.552 1146.92 303.239 1147.02 342.861C1147.04 350.29 1147.01 357.59 1147.01 364.95L1146.92 452.39C1146.86 477.74 1143.88 507.68 1160.01 529.1C1168.3 540.1 1180.2 542.45 1191.73 548.21C1166.07 550.18 1124.88 548.09 1098.16 548.83C1082.74 549.26 1032.43 549.64 1019.14 547.87C1027.51 544.31 1036.83 542.62 1044.09 536.63C1067.34 517.48 1064.44 482.68 1064.33 455.78L1064.19 400.24L1064.15 346.31C1064.35 319.368 1069.61 282.009 1040.08 267.975C1020.14 258.5 992.371 264.086 983.508 286.087C978.935 297.438 979.901 313.774 979.639 325.843C979.854 368.94 979.421 412.03 979.61 455.12C979.767 490.75 974.731 529.27 1015.06 544.97L1017.54 545.51L1018.36 547.39C1017.9 547.82 1017.43 548.25 1016.96 548.68C964.549 548.94 911.96 548.89 859.541 548.58C858.041 548.57 857.015 548.32 855.904 548.06C856.145 547.41 856.385 546.76 856.626 546.11C874.609 540.36 890.129 526.4 893.526 507.2C894.244 502.89 895.286 498.12 895.467 493.76C896.543 467.93 896.059 441.53 896.072 415.69V356.63C896.052 327.119 900.509 284.331 869.665 267.769C859.293 262.301 847.157 261.235 835.99 264.813C824.897 268.333 815.744 276.267 810.683 286.747C808.418 291.554 807.162 298.8 807.073 304.189C807.485 335.898 805.577 366.1 806.838 398.01C808.306 435.12 802.274 479.84 812.17 515.5C817.785 535.73 833.322 540.41 849.964 548.2C831.252 549.81 792.356 548.9 771.953 548.78C744.033 548.61 705.925 549.96 679.25 548.07C684.176 545.78 689.732 544.39 694.891 542.18C726.292 528.81 724.72 490.17 724.641 461.39C724.511 413.59 725.492 364.86 723.926 317.072C723.451 302.576 717.524 286.42 707.194 276.291C701.02 270.238 696.532 268.385 688.612 265.555Z" fill="#0C0A0B"/>
<path d="M1015.06 544.97L1017.54 545.51L1018.36 547.39C1017.9 547.82 1017.43 548.25 1016.96 548.68C964.549 548.94 911.96 548.89 859.541 548.58C858.041 548.57 857.015 548.32 855.904 548.06C864.862 546.96 886.645 547.57 897.038 547.57L978.894 547.69C987.916 547.71 1005.26 548.21 1013.29 547.23L1015.06 544.97Z" fill="#0C0A0B"/>
<path d="M1786.95 46.969C1789.55 50.116 1788.21 307.885 1788.21 342.389C1834.74 292.572 1889.75 245.029 1954.98 222.556C1960.1 220.794 1965.81 218.328 1970.64 220.646C1970.8 221.21 1972.28 226.274 1971.15 226.61C1926.94 239.737 1882.2 264.468 1848.23 296.087C1854.13 310.806 1861.37 326.762 1868.45 340.862C1898.54 400.83 1922.01 465.25 1958.06 521.83C1968.28 537.85 1999.44 543.74 2001.88 546.73L2001.37 547.95C1994.5 550.44 1863.15 548.81 1846.01 548.83C1840.49 548.8 1834.55 548.49 1828.99 548.3C1831.79 547.1 1836.73 545.46 1839.08 544.33C1876.02 526.61 1835.04 463.26 1823.39 439.37C1811.33 414.43 1799.61 389.33 1788.22 364.08L1788.08 434.75C1788.05 457.83 1786.13 491.4 1792.73 512.76C1800.67 538.45 1813.27 538.87 1831.72 548.13C1813.69 549.4 1788.69 548.87 1770.36 548.87L1666.65 548.55L1665.35 547.12L1666.22 545.42C1686.73 538.36 1700.22 526.21 1703.4 503.81C1707.24 476.75 1705.8 447.31 1705.8 419.88L1705.59 283.118L1705.85 192.785C1705.9 154.507 1714.42 111.422 1664.55 104.769C1705.58 92.571 1753.1 73.718 1786.95 46.969Z" fill="#0C0A0B"/>
<path d="M1220.88 255.905C1262.87 217.793 1322.41 209.475 1374.26 230.589C1421.56 249.852 1431.51 295.345 1429.94 341.691C1429.74 347.48 1429.93 353.94 1429.92 359.78L1429.85 437.69C1429.82 462.87 1425.69 494.12 1447.51 511.25C1451.43 514.34 1457.05 516.82 1458.98 521L1458.27 523.08C1450.3 526.83 1441.58 528.32 1433.63 531.76C1410.77 541.62 1377.88 556.58 1357.65 570.45C1349.42 547.31 1344.07 527.2 1342.79 502.29L1339.43 498.89C1328.63 517.95 1318.43 530.04 1301.14 543.38C1261.89 573.65 1193.01 565.47 1179.52 511.94C1173.17 486.72 1177.05 455.56 1190.51 433.19C1197.32 421.88 1206.07 411.86 1216.34 403.56C1241.36 383.15 1309.21 350.85 1341.23 342.827L1342.06 342.626C1342.22 315.215 1346.38 260.833 1324.38 242.042C1284.08 207.627 1217.41 265.044 1197.29 297.95L1188.99 292.133C1199.34 278.444 1208.1 267.502 1220.88 255.905ZM1340.27 348.889C1307.87 363.219 1284.83 380.77 1271.87 414.71C1261.71 441.33 1258.42 477.94 1276.76 501.52C1294.49 516.39 1317.99 514.59 1333.59 496.75C1344.3 484.51 1342.27 461.13 1342.25 445.23L1342.17 391.49C1342.15 381.24 1343.29 358.7 1341.77 349.62L1340.27 348.889ZM1341.43 495.679C1340.33 496.229 1339.93 497.749 1339.43 498.889L1342.79 502.29C1342.67 501.339 1342.43 495.931 1341.43 495.679Z" fill="#0C0A0B"/>
<path d="M355.729 402.2L355.473 453C355.238 487.41 350.554 505.61 384.947 523.92C352.296 534.04 307.038 550.57 275.37 563.53C276.188 545.68 276.9 527.83 277.507 509.98L274.48 507.04C255.816 532.92 229.514 553.96 197.496 559.09C151.744 566.43 118.888 540.41 112.989 494.98C110.254 473.91 111.035 454.76 111.084 433.6L111.329 347.37C111.48 311.521 117.787 275.407 74.8848 262.82C115.795 252.318 155.587 237.861 193.698 219.654L193.826 397.26L193.84 444C193.821 454.57 193.234 464.03 194.611 474.59C199.272 510.32 240.706 527.47 267.326 501.92C276.437 492.89 277.8 477.77 277.828 465.57C277.924 415.37 278.2 365.14 277.754 314.949C277.706 309.539 276.603 303.098 275.396 297.826C271.112 279.121 261.038 269.864 243.678 263.355C282.532 253.064 320.078 238.352 355.579 219.506L355.729 402.2Z" fill="#0C0A0B"/>
<path d="M1581.94 253.018C1599.11 224.747 1640.73 205.839 1670.56 228.081C1679.35 234.633 1685.15 244.436 1686.65 255.295C1689.92 278.398 1669.51 301.302 1656.31 319.382C1612.87 285.737 1566.86 261.332 1559.43 342.891C1556.35 376.599 1560.76 412.33 1558.83 446.25C1557.97 461.38 1558.99 478.11 1559.43 493.3C1562.95 526.08 1575.83 537.54 1605.31 547.29C1595.41 549.52 1578.64 548.81 1567.97 548.82L1517.24 548.85C1501.21 548.85 1447.12 549.84 1433.24 547.7C1438.93 545.14 1443.55 544.47 1449.36 541.81C1461.35 536.32 1470.65 526.26 1475.19 513.88C1477.3 508.07 1479.64 498.22 1479.77 492.04C1480.82 438.92 1479.87 385.66 1480.19 332.526C1480.38 301.859 1481.35 278.317 1447.35 265.858C1490.3 253.535 1524.28 239.27 1564.01 219.118C1563.8 235.677 1562.93 252.124 1562.89 268.729V268.732C1561.99 274.315 1562.23 278.119 1561.79 283.545C1561.48 285.682 1560.08 295.964 1561.67 297.472L1562.09 297.214L1561.88 296.87L1562.39 296.575C1562.79 295.561 1562.65 295.549 1562.75 294.084C1563.31 292.234 1563.8 290.583 1564.26 288.75L1564.46 287.952C1569.75 274.48 1574.44 265.357 1581.94 253.018ZM1563.57 285.783L1563.57 285.782L1563.57 285.783ZM1563.03 277.766C1563.01 278.676 1563.01 279.578 1563.02 280.455C1563.01 279.578 1563.01 278.676 1563.03 277.766Z" fill="#0C0A0B"/>
</g>
<defs>
<clipPath id="clip0_1_100">
<rect width="2048" height="773" fill="white"/>
</clipPath>
</defs>
</svg>
